<?xml version="1.0" standalone="no"?>
<!DOCTYPE svg PUBLIC "-//W3C//DTD SVG 20010904//EN"
 "http://www.w3.org/TR/2001/REC-SVG-20010904/DTD/svg10.dtd">
<svg version="1.0" xmlns="http://www.w3.org/2000/svg"
 width="1000.000000pt" height="1000.000000pt" viewBox="0 0 1000.000000 1000.000000"
 preserveAspectRatio="xMidYMid meet">
<metadata>
Created by potrace 1.14, written by Peter Selinger 2001-2017
</metadata>
<g transform="translate(0.000000,1000.000000) scale(0.100000,-0.100000)"
fill="#000000" stroke="none">
<path d="M5837 9739 c-20 -5 -59 -20 -86 -33 -27 -14 -692 -436 -1477 -939
-786 -503 -1969 -1259 -2629 -1681 -813 -520 -1217 -785 -1253 -820 -132 -127
-174 -347 -98 -511 13 -27 157 -259 321 -515 272 -424 1026 -1602 2498 -3905
302 -473 566 -882 585 -909 121 -166 367 -229 556 -143 28 13 236 142 461 287
600 385 2665 1706 3840 2455 699 446 1037 668 1073 703 132 129 172 350 94
515 -16 34 -497 793 -1069 1687 -571 894 -1327 2075 -1678 2625 -382 597 -659
1021 -689 1053 -59 63 -131 106 -211 127 -64 16 -177 18 -238 4z m-817 -2834
c358 -51 637 -193 905 -460 331 -329 558 -765 621 -1189 19 -127 14 -352 -10
-471 -93 -459 -341 -822 -765 -1116 -35 -24 -303 -195 -595 -380 -393 -250
-534 -334 -542 -325 -15 14 -1872 2949 -1876 2964 -4 14 1102 715 1242 787
340 173 683 238 1020 190z"/>
<path d="M4558 6225 c-96 -16 -193 -48 -283 -92 -112 -56 -597 -364 -592 -377
7 -18 1178 -1869 1191 -1882 13 -14 458 264 590 369 171 136 284 299 351 507
22 69 28 110 33 216 5 154 -5 227 -54 373 -96 290 -312 585 -539 738 -202 136
-451 189 -697 148z"/>
</g>
</svg>
