<?xml version="1.0" standalone="no"?>
<!DOCTYPE svg PUBLIC "-//W3C//DTD SVG 20010904//EN"
 "http://www.w3.org/TR/2001/REC-SVG-20010904/DTD/svg10.dtd">
<svg version="1.0" xmlns="http://www.w3.org/2000/svg"
 width="1196.000000pt" height="1196.000000pt" viewBox="0 0 1196.000000 1196.000000"
 preserveAspectRatio="xMidYMid meet">
<metadata>
Created by potrace 1.14, written by Peter Selinger 2001-2017
</metadata>
<g transform="translate(0.000000,1196.000000) scale(0.100000,-0.100000)"
fill="#000000" stroke="none">
<path d="M5535 8280 c-263 -40 -526 -125 -788 -256 -167 -83 -1708 -957 -1705
-966 8 -24 2344 -4147 2350 -4148 15 -1 1655 934 1749 998 480 322 794 710
944 1165 220 668 80 1405 -410 2152 -407 622 -948 986 -1585 1065 -132 16
-416 11 -555 -10z m420 -1044 c159 -44 326 -148 470 -291 257 -258 516 -715
610 -1075 35 -135 46 -374 22 -485 -23 -106 -70 -221 -129 -310 -64 -97 -214
-248 -326 -330 -101 -73 -684 -408 -693 -397 -9 10 -1357 2394 -1364 2413 -4
12 54 49 262 167 384 216 498 267 709 312 112 25 344 22 439 -4z"/>
</g>
</svg>
