<?xml version="1.0" standalone="no"?>
<!DOCTYPE svg PUBLIC "-//W3C//DTD SVG 20010904//EN"
 "http://www.w3.org/TR/2001/REC-SVG-20010904/DTD/svg10.dtd">
<svg version="1.0" xmlns="http://www.w3.org/2000/svg"
 width="1196.000000pt" height="1196.000000pt" viewBox="0 0 1196.000000 1196.000000"
 preserveAspectRatio="xMidYMid meet">
<metadata>
Created by potrace 1.14, written by Peter Selinger 2001-2017
</metadata>
<g transform="translate(0.000000,1196.000000) scale(0.100000,-0.100000)"
fill="#000000" stroke="none">
<path d="M3035 11629 c-688 -61 -1326 -359 -1815 -849 -229 -230 -413 -486
-555 -774 -152 -311 -231 -569 -282 -926 -17 -118 -18 -295 -18 -3080 0 -2785
1 -2962 18 -3080 51 -357 130 -616 282 -925 291 -592 756 -1054 1350 -1341
292 -141 546 -218 895 -271 107 -16 313 -17 2995 -21 2999 -3 3032 -3 3288 39
644 105 1264 444 1694 928 402 451 642 974 730 1591 17 118 18 295 18 3080 0
2785 -1 2962 -18 3080 -51 357 -130 616 -282 925 -363 738 -1025 1293 -1816
1520 -136 39 -262 66 -429 92 -107 16 -309 17 -3035 19 -1624 1 -2964 -2
-3020 -7z m3410 -2010 c728 -58 1358 -277 1843 -641 124 -93 341 -304 445
-433 265 -329 454 -742 547 -1195 129 -631 89 -1494 -100 -2180 -247 -895
-742 -1604 -1461 -2093 -943 -640 -2135 -856 -3659 -661 -230 29 -329 52 -427
98 -178 85 -243 208 -243 462 0 435 186 1727 405 2804 144 710 382 1676 441
1792 30 60 95 132 148 165 220 140 754 151 928 20 26 -19 54 -54 71 -87 27
-52 28 -61 24 -145 -4 -54 -16 -124 -31 -175 -139 -457 -226 -790 -320 -1215
-134 -610 -252 -1261 -335 -1850 -49 -344 -117 -952 -109 -961 2 -2 71 -9 152
-15 207 -16 762 -7 926 15 852 115 1430 451 1849 1075 347 516 527 1118 572
1911 36 645 -70 1141 -325 1525 -314 470 -795 738 -1477 821 -184 23 -589 22
-804 0 -686 -73 -1394 -311 -1970 -662 -207 -126 -238 -142 -309 -155 -160
-29 -280 47 -347 219 -30 78 -38 264 -15 372 48 228 185 364 592 588 602 331
1490 568 2299 612 168 9 508 4 690 -11z"/>
</g>
</svg>
